<?xml version="1.0" encoding="iso-8859-1"?>
<!-- Uploaded to: SVG Repo, www.svgrepo.com, Generator: SVG Repo Mixer Tools -->
<!DOCTYPE svg PUBLIC "-//W3C//DTD SVG 1.1//EN" "http://www.w3.org/Graphics/SVG/1.1/DTD/svg11.dtd">
<svg fill="#FFFFFF" height="800px" width="800px" version="1.1" id="Capa_1" xmlns="http://www.w3.org/2000/svg" xmlns:xlink="http://www.w3.org/1999/xlink" 
	 viewBox="0 0 392.619 392.619" xml:space="preserve">
<g>
	<path d="M254.972,143.588c-7.003-7.091-15.205-13.043-24.382-17.576c-21.687-10.714-46.247-12.34-69.153-4.58
		c-22.909,7.759-41.426,23.976-52.138,45.661c-22.114,44.767-3.686,99.178,41.081,121.293c12.862,6.353,26.611,9.438,40.23,9.438
		c23.982,0,47.549-9.578,65.069-27.754l-21.598-20.82c-18.367,19.052-46.663,23.97-70.415,12.238
		c-29.936-14.788-42.259-51.173-27.472-81.108c7.164-14.502,19.546-25.346,34.864-30.534c15.318-5.189,31.741-4.1,46.243,3.063
		c7.901,3.903,14.722,9.376,20.138,16.028l-38.662,2.951l2.283,29.912l73.109-5.579l18.186-83.164l-29.307-6.408L254.972,143.588z"
		/>
	<path d="M310.724,0.929H81.896C36.738,0.929,0,37.667,0,82.825v226.97c0,45.157,36.738,81.896,81.896,81.896h228.828
		c45.157,0,81.896-36.738,81.896-81.896V82.825C392.619,37.667,355.881,0.929,310.724,0.929z M362.619,309.794
		c0,28.615-23.28,51.896-51.896,51.896H81.896C53.28,361.69,30,338.41,30,309.794V82.825c0-28.615,23.28-51.896,51.896-51.896
		h228.828c28.615,0,51.896,23.28,51.896,51.896V309.794z"/>
</g>
</svg>